<?xml version="1.0" encoding="UTF-8"?>
<svg xmlns="http://www.w3.org/2000/svg" xmlns:xlink="http://www.w3.org/1999/xlink" width="20px" height="20px" viewBox="0 0 20 20" version="1.1">
<g id="surface1">
<path style=" stroke:none;fill-rule:nonzero;fill:rgb(0%,0%,0%);fill-opacity:1;" d="M 16.875 13.75 L 6.875 13.75 C 6.609375 13.75 6.375 13.582031 6.289062 13.332031 L 2.679688 3.125 L 0.625 3.125 C 0.28125 3.125 0 2.84375 0 2.5 C 0 2.15625 0.28125 1.875 0.625 1.875 L 3.125 1.875 C 3.390625 1.875 3.625 2.042969 3.710938 2.292969 L 7.320312 12.5 L 16.425781 12.5 L 18.78125 5.425781 C 18.890625 5.097656 19.246094 4.921875 19.574219 5.03125 C 19.902344 5.140625 20.078125 5.496094 19.96875 5.824219 L 17.46875 13.324219 C 17.382812 13.578125 17.144531 13.75 16.875 13.75 Z M 16.875 13.75 "/>
<path style=" stroke:none;fill-rule:nonzero;fill:rgb(0%,0%,0%);fill-opacity:1;" d="M 17.5 6.25 L 6.25 6.25 C 5.90625 6.25 5.625 5.96875 5.625 5.625 C 5.625 5.28125 5.90625 5 6.25 5 L 17.5 5 C 17.84375 5 18.125 5.28125 18.125 5.625 C 18.125 5.96875 17.84375 6.25 17.5 6.25 Z M 17.5 6.25 "/>
<path style=" stroke:none;fill-rule:nonzero;fill:rgb(0%,0%,0%);fill-opacity:1;" d="M 16.25 8.75 L 7.5 8.75 C 7.15625 8.75 6.875 8.46875 6.875 8.125 C 6.875 7.78125 7.15625 7.5 7.5 7.5 L 16.25 7.5 C 16.59375 7.5 16.875 7.78125 16.875 8.125 C 16.875 8.46875 16.59375 8.75 16.25 8.75 Z M 16.25 8.75 "/>
<path style=" stroke:none;fill-rule:nonzero;fill:rgb(0%,0%,0%);fill-opacity:1;" d="M 15.625 11.25 L 8.125 11.25 C 7.78125 11.25 7.5 10.96875 7.5 10.625 C 7.5 10.28125 7.78125 10 8.125 10 L 15.625 10 C 15.96875 10 16.25 10.28125 16.25 10.625 C 16.25 10.96875 15.96875 11.25 15.625 11.25 Z M 15.625 11.25 "/>
<path style=" stroke:none;fill-rule:nonzero;fill:rgb(0%,0%,0%);fill-opacity:1;" d="M 15.625 18.125 C 14.589844 18.125 13.75 17.285156 13.75 16.25 C 13.75 15.214844 14.589844 14.375 15.625 14.375 C 16.660156 14.375 17.5 15.214844 17.5 16.25 C 17.5 17.285156 16.660156 18.125 15.625 18.125 Z M 15.625 15.625 C 15.28125 15.625 15 15.90625 15 16.25 C 15 16.59375 15.28125 16.875 15.625 16.875 C 15.96875 16.875 16.25 16.59375 16.25 16.25 C 16.25 15.90625 15.96875 15.625 15.625 15.625 Z M 15.625 15.625 "/>
<path style=" stroke:none;fill-rule:nonzero;fill:rgb(0%,0%,0%);fill-opacity:1;" d="M 8.125 18.125 C 7.089844 18.125 6.25 17.285156 6.25 16.25 C 6.25 15.214844 7.089844 14.375 8.125 14.375 C 9.160156 14.375 10 15.214844 10 16.25 C 10 17.285156 9.160156 18.125 8.125 18.125 Z M 8.125 15.625 C 7.78125 15.625 7.5 15.90625 7.5 16.25 C 7.5 16.59375 7.78125 16.875 8.125 16.875 C 8.46875 16.875 8.75 16.59375 8.75 16.25 C 8.75 15.90625 8.46875 15.625 8.125 15.625 Z M 8.125 15.625 "/>
</g>
</svg>
