<?xml version="1.0" encoding="UTF-8"?>
<svg xmlns="http://www.w3.org/2000/svg" xmlns:xlink="http://www.w3.org/1999/xlink" width="20px" height="20px" viewBox="0 0 20 20" version="1.1">
<g id="surface1">
<path style=" stroke:none;fill-rule:nonzero;fill:rgb(0%,0%,0%);fill-opacity:1;" d="M 17.5 20 L 11.667969 20 L 11.667969 14.582031 L 8.332031 14.582031 L 8.332031 20 L 2.5 20 L 2.5 11.25 C 2.5 11.019531 2.6875 10.832031 2.917969 10.832031 C 3.148438 10.832031 3.332031 11.019531 3.332031 11.25 L 3.332031 19.167969 L 7.5 19.167969 L 7.5 13.75 L 12.5 13.75 L 12.5 19.167969 L 16.667969 19.167969 L 16.667969 11.667969 C 16.667969 11.4375 16.851562 11.25 17.082031 11.25 C 17.3125 11.25 17.5 11.4375 17.5 11.667969 Z M 17.5 20 "/>
<path style=" stroke:none;fill-rule:nonzero;fill:rgb(0%,0%,0%);fill-opacity:1;" d="M 19.582031 11.25 C 19.480469 11.25 19.375 11.210938 19.296875 11.132812 L 10 2.242188 L 0.703125 11.132812 C 0.539062 11.292969 0.273438 11.289062 0.117188 11.121094 C -0.0429688 10.957031 -0.0390625 10.691406 0.128906 10.53125 L 10 1.089844 L 19.871094 10.53125 C 20.035156 10.691406 20.042969 10.953125 19.882812 11.121094 C 19.800781 11.207031 19.691406 11.25 19.582031 11.25 Z M 19.582031 11.25 "/>
<path style=" stroke:none;fill-rule:nonzero;fill:rgb(0%,0%,0%);fill-opacity:1;" d="M 16.25 6.25 C 16.019531 6.25 15.832031 6.0625 15.832031 5.832031 L 15.832031 3.332031 L 13.332031 3.332031 C 13.101562 3.332031 12.917969 3.148438 12.917969 2.917969 C 12.917969 2.6875 13.101562 2.5 13.332031 2.5 L 16.667969 2.5 L 16.667969 5.832031 C 16.667969 6.0625 16.480469 6.25 16.25 6.25 Z M 16.25 6.25 "/>
</g>
</svg>
