<?xml version="1.0" encoding="UTF-8"?>
<svg xmlns="http://www.w3.org/2000/svg" xmlns:xlink="http://www.w3.org/1999/xlink" width="37px" height="37px" viewBox="0 0 37 37" version="1.1">
<g id="surface1">
<path style=" stroke:none;fill-rule:nonzero;fill:rgb(0%,0%,0%);fill-opacity:1;" d="M 35.148438 12.445312 C 35.144531 12.410156 35.136719 12.375 35.125 12.34375 C 35.121094 12.332031 35.117188 12.320312 35.113281 12.308594 C 35.109375 12.300781 35.105469 12.292969 35.101562 12.285156 L 33.003906 8.539062 L 33.003906 3.910156 C 33.003906 2.78125 32.082031 1.859375 30.953125 1.859375 L 16.148438 1.859375 C 15.015625 1.859375 14.097656 2.78125 14.097656 3.910156 L 14.097656 8.539062 L 12 12.285156 C 11.964844 12.34375 11.949219 12.410156 11.953125 12.480469 C 11.953125 12.484375 11.953125 12.484375 11.953125 12.488281 L 11.953125 21.726562 C 11.949219 21.730469 11.941406 21.734375 11.9375 21.738281 C 10.4375 22.558594 9.121094 23.015625 8.019531 23.09375 C 6.082031 23.226562 4.96875 24.046875 4.359375 24.746094 C 4.296875 24.640625 4.1875 24.566406 4.054688 24.566406 L 2.210938 24.566406 C 2.011719 24.566406 1.851562 24.730469 1.851562 24.929688 L 1.851562 34.757812 C 1.851562 34.960938 2.011719 35.121094 2.210938 35.121094 L 4.054688 35.121094 C 4.253906 35.121094 4.417969 34.957031 4.417969 34.757812 L 4.417969 34.679688 C 4.675781 34.710938 4.96875 34.765625 5.296875 34.828125 C 6.007812 34.96875 6.871094 35.140625 7.910156 35.140625 C 8.105469 35.140625 8.308594 35.132812 8.515625 35.121094 C 12.328125 34.882812 13.941406 34.054688 16.175781 32.90625 C 17.28125 32.335938 18.535156 31.691406 20.300781 31 C 23.566406 29.71875 27.078125 29.480469 28.964844 29.355469 C 29.195312 29.339844 29.40625 29.324219 29.589844 29.3125 C 30.039062 29.273438 30.453125 29.074219 30.757812 28.75 C 31.0625 28.421875 31.230469 27.996094 31.230469 27.554688 C 31.230469 27.164062 31.097656 26.804688 30.875 26.511719 L 33.078125 26.511719 C 34.238281 26.511719 35.148438 25.644531 35.148438 24.535156 L 35.148438 12.460938 C 35.148438 12.457031 35.148438 12.453125 35.148438 12.445312 Z M 14.824219 3.910156 C 14.824219 3.179688 15.417969 2.585938 16.148438 2.585938 L 30.953125 2.585938 C 31.683594 2.585938 32.277344 3.179688 32.277344 3.910156 L 32.277344 8.285156 L 30.707031 8.285156 L 30.707031 4.652344 C 30.707031 4.253906 30.382812 3.929688 29.984375 3.929688 L 17.117188 3.929688 C 16.71875 3.929688 16.394531 4.253906 16.394531 4.652344 L 16.394531 8.285156 L 14.824219 8.285156 Z M 29.984375 8.285156 L 17.117188 8.285156 L 17.117188 4.652344 L 29.984375 4.652344 Z M 14.667969 9.007812 L 32.433594 9.007812 L 34.167969 12.097656 L 12.933594 12.097656 Z M 3.691406 34.398438 L 2.574219 34.398438 L 2.574219 25.289062 L 3.691406 25.289062 Z M 30.230469 28.253906 C 30.046875 28.449219 29.800781 28.566406 29.53125 28.589844 C 29.351562 28.601562 29.144531 28.617188 28.914062 28.632812 C 26.988281 28.761719 23.40625 29 20.035156 30.324219 C 18.238281 31.03125 16.964844 31.683594 15.84375 32.261719 C 13.691406 33.367188 12.132812 34.167969 8.46875 34.398438 C 7.246094 34.472656 6.242188 34.277344 5.433594 34.117188 C 5.0625 34.046875 4.726562 33.980469 4.417969 33.949219 L 4.417969 25.96875 C 4.554688 25.65625 5.40625 24 8.070312 23.8125 C 9.273438 23.730469 10.691406 23.242188 12.285156 22.371094 C 12.339844 22.339844 12.394531 22.304688 12.449219 22.273438 C 12.460938 22.269531 12.46875 22.261719 12.476562 22.257812 C 13.042969 21.9375 13.609375 21.585938 14.175781 21.199219 C 14.730469 20.8125 15.480469 20.875 15.96875 21.339844 C 15.980469 21.347656 15.988281 21.359375 15.996094 21.367188 C 16.269531 21.640625 16.410156 21.996094 16.402344 22.375 C 16.390625 22.75 16.226562 23.097656 15.941406 23.351562 L 13.109375 25.878906 C 12.996094 25.980469 12.957031 26.140625 13.007812 26.28125 C 13.0625 26.421875 13.199219 26.511719 13.347656 26.511719 L 29.441406 26.511719 C 30.03125 26.511719 30.507812 26.980469 30.507812 27.554688 C 30.507812 27.8125 30.410156 28.0625 30.230469 28.253906 Z M 34.425781 24.535156 C 34.425781 25.238281 33.832031 25.785156 33.078125 25.785156 L 14.300781 25.785156 L 16.425781 23.890625 C 16.859375 23.503906 17.109375 22.972656 17.125 22.394531 C 17.140625 21.828125 16.929688 21.289062 16.53125 20.878906 C 16.523438 20.867188 16.511719 20.855469 16.5 20.84375 C 15.765625 20.117188 14.617188 20.015625 13.765625 20.601562 C 13.402344 20.851562 13.039062 21.082031 12.675781 21.304688 L 12.675781 12.851562 L 34.425781 12.824219 Z M 34.425781 24.535156 "/>
<path style=" stroke:none;fill-rule:nonzero;fill:rgb(0%,0%,0%);fill-opacity:1;" d="M 20.246094 25.140625 L 27.429688 25.140625 C 28.761719 25.140625 29.84375 24.058594 29.84375 22.726562 L 29.84375 22.589844 C 29.84375 22.296875 29.695312 22.035156 29.472656 21.875 C 29.582031 21.699219 29.648438 21.492188 29.648438 21.269531 L 29.648438 21.1875 C 29.648438 20.894531 29.539062 20.632812 29.363281 20.429688 C 29.539062 20.246094 29.648438 19.992188 29.648438 19.714844 L 29.648438 19.644531 C 29.648438 19.457031 29.597656 19.285156 29.507812 19.132812 C 29.710938 18.972656 29.84375 18.726562 29.84375 18.445312 L 29.84375 18.1875 C 29.84375 15.585938 27.726562 13.46875 25.121094 13.46875 L 22.550781 13.46875 C 19.949219 13.46875 17.832031 15.585938 17.832031 18.1875 L 17.832031 18.445312 C 17.832031 18.726562 17.964844 18.972656 18.167969 19.132812 C 18.078125 19.285156 18.027344 19.457031 18.027344 19.644531 L 18.027344 19.714844 C 18.027344 19.992188 18.136719 20.242188 18.3125 20.429688 C 18.136719 20.632812 18.027344 20.894531 18.027344 21.1875 L 18.027344 21.269531 C 18.027344 21.492188 18.09375 21.699219 18.199219 21.875 C 17.980469 22.035156 17.832031 22.296875 17.832031 22.589844 L 17.832031 22.726562 C 17.832031 24.058594 18.914062 25.140625 20.246094 25.140625 Z M 29.117188 22.726562 C 29.117188 23.660156 28.359375 24.417969 27.429688 24.417969 L 20.246094 24.417969 C 19.316406 24.417969 18.558594 23.660156 18.558594 22.726562 L 18.558594 22.589844 C 18.558594 22.5 18.628906 22.425781 18.722656 22.425781 L 28.957031 22.425781 C 29.046875 22.425781 29.117188 22.5 29.117188 22.589844 Z M 18.75 21.269531 L 18.75 21.1875 C 18.75 20.949219 18.945312 20.753906 19.183594 20.753906 L 28.492188 20.753906 C 28.730469 20.753906 28.925781 20.949219 28.925781 21.1875 L 28.925781 21.269531 C 28.925781 21.507812 28.730469 21.703125 28.492188 21.703125 L 19.183594 21.703125 C 18.945312 21.703125 18.75 21.507812 18.75 21.269531 Z M 19.0625 20.03125 C 18.890625 20.03125 18.75 19.890625 18.75 19.714844 L 18.75 19.644531 C 18.75 19.472656 18.890625 19.332031 19.0625 19.332031 L 28.613281 19.332031 C 28.785156 19.332031 28.925781 19.472656 28.925781 19.644531 L 28.925781 19.714844 C 28.925781 19.890625 28.785156 20.03125 28.613281 20.03125 Z M 18.558594 18.1875 C 18.558594 15.984375 20.351562 14.191406 22.550781 14.191406 L 25.125 14.191406 C 27.328125 14.191406 29.117188 15.984375 29.117188 18.1875 L 29.117188 18.445312 C 29.117188 18.535156 29.046875 18.605469 28.957031 18.605469 L 18.71875 18.605469 C 18.628906 18.605469 18.558594 18.535156 18.558594 18.445312 Z M 18.558594 18.1875 "/>
<path style=" stroke:none;fill-rule:nonzero;fill:rgb(0%,0%,0%);fill-opacity:1;" d="M 19.394531 17.628906 C 19.511719 17.628906 19.625 17.574219 19.695312 17.472656 L 19.769531 17.367188 C 19.882812 17.203125 19.839844 16.976562 19.675781 16.863281 C 19.511719 16.75 19.285156 16.792969 19.171875 16.957031 L 19.097656 17.0625 C 18.984375 17.226562 19.027344 17.453125 19.191406 17.566406 C 19.253906 17.609375 19.324219 17.628906 19.394531 17.628906 Z M 19.394531 17.628906 "/>
<path style=" stroke:none;fill-rule:nonzero;fill:rgb(0%,0%,0%);fill-opacity:1;" d="M 22.644531 17.9375 C 22.761719 17.9375 22.871094 17.882812 22.941406 17.78125 L 23.015625 17.675781 C 23.128906 17.511719 23.089844 17.285156 22.921875 17.171875 C 22.757812 17.058594 22.535156 17.097656 22.421875 17.265625 L 22.347656 17.371094 C 22.234375 17.535156 22.273438 17.761719 22.441406 17.875 C 22.503906 17.917969 22.574219 17.9375 22.644531 17.9375 Z M 22.644531 17.9375 "/>
<path style=" stroke:none;fill-rule:nonzero;fill:rgb(0%,0%,0%);fill-opacity:1;" d="M 19.355469 22.734375 L 19.28125 22.839844 C 19.167969 23.003906 19.210938 23.230469 19.375 23.34375 C 19.4375 23.386719 19.507812 23.40625 19.582031 23.40625 C 19.695312 23.40625 19.808594 23.351562 19.878906 23.25 L 19.953125 23.144531 C 20.066406 22.980469 20.023438 22.753906 19.859375 22.640625 C 19.695312 22.527344 19.46875 22.570312 19.355469 22.734375 Z M 19.355469 22.734375 "/>
<path style=" stroke:none;fill-rule:nonzero;fill:rgb(0%,0%,0%);fill-opacity:1;" d="M 24.457031 22.734375 L 24.382812 22.839844 C 24.269531 23.003906 24.3125 23.230469 24.476562 23.34375 C 24.539062 23.386719 24.609375 23.40625 24.679688 23.40625 C 24.796875 23.40625 24.910156 23.351562 24.980469 23.25 L 25.054688 23.144531 C 25.167969 22.980469 25.125 22.753906 24.960938 22.640625 C 24.796875 22.527344 24.570312 22.570312 24.457031 22.734375 Z M 24.457031 22.734375 "/>
<path style=" stroke:none;fill-rule:nonzero;fill:rgb(0%,0%,0%);fill-opacity:1;" d="M 21.691406 23.453125 L 21.617188 23.558594 C 21.503906 23.722656 21.546875 23.949219 21.710938 24.0625 C 21.773438 24.105469 21.847656 24.125 21.917969 24.125 C 22.03125 24.125 22.144531 24.070312 22.214844 23.96875 L 22.289062 23.863281 C 22.402344 23.699219 22.359375 23.472656 22.195312 23.359375 C 22.03125 23.246094 21.804688 23.289062 21.691406 23.453125 Z M 21.691406 23.453125 "/>
<path style=" stroke:none;fill-rule:nonzero;fill:rgb(0%,0%,0%);fill-opacity:1;" d="M 27.15625 23.398438 L 27.082031 23.507812 C 26.96875 23.671875 27.007812 23.894531 27.175781 24.007812 C 27.238281 24.054688 27.308594 24.074219 27.378906 24.074219 C 27.492188 24.074219 27.605469 24.019531 27.675781 23.917969 L 27.75 23.8125 C 27.863281 23.644531 27.824219 23.421875 27.65625 23.308594 C 27.492188 23.195312 27.269531 23.234375 27.15625 23.398438 Z M 27.15625 23.398438 "/>
<path style=" stroke:none;fill-rule:nonzero;fill:rgb(0%,0%,0%);fill-opacity:1;" d="M 27.703125 16.609375 C 27.820312 16.609375 27.933594 16.554688 28.003906 16.453125 L 28.074219 16.347656 C 28.191406 16.183594 28.148438 15.957031 27.984375 15.84375 C 27.820312 15.730469 27.59375 15.773438 27.480469 15.9375 L 27.40625 16.042969 C 27.292969 16.207031 27.335938 16.433594 27.5 16.546875 C 27.5625 16.589844 27.632812 16.609375 27.703125 16.609375 Z M 27.703125 16.609375 "/>
<path style=" stroke:none;fill-rule:nonzero;fill:rgb(0%,0%,0%);fill-opacity:1;" d="M 26.148438 17.992188 C 26.265625 17.992188 26.378906 17.9375 26.449219 17.835938 L 26.519531 17.726562 C 26.636719 17.5625 26.59375 17.335938 26.429688 17.226562 C 26.265625 17.113281 26.039062 17.152344 25.925781 17.316406 L 25.851562 17.421875 C 25.738281 17.589844 25.78125 17.8125 25.945312 17.925781 C 26.007812 17.96875 26.078125 17.992188 26.148438 17.992188 Z M 26.148438 17.992188 "/>
<path style=" stroke:none;fill-rule:nonzero;fill:rgb(0%,0%,0%);fill-opacity:1;" d="M 20.992188 15.851562 C 21.109375 15.851562 21.222656 15.796875 21.292969 15.695312 L 21.363281 15.589844 C 21.476562 15.425781 21.4375 15.199219 21.273438 15.085938 C 21.109375 14.972656 20.882812 15.015625 20.769531 15.179688 L 20.695312 15.285156 C 20.582031 15.449219 20.625 15.675781 20.789062 15.789062 C 20.851562 15.832031 20.921875 15.851562 20.992188 15.851562 Z M 20.992188 15.851562 "/>
<path style=" stroke:none;fill-rule:nonzero;fill:rgb(0%,0%,0%);fill-opacity:1;" d="M 24.316406 15.90625 C 24.429688 15.90625 24.542969 15.851562 24.613281 15.75 L 24.6875 15.644531 C 24.800781 15.480469 24.757812 15.253906 24.59375 15.140625 C 24.429688 15.027344 24.203125 15.066406 24.089844 15.230469 L 24.015625 15.339844 C 23.902344 15.503906 23.945312 15.730469 24.109375 15.84375 C 24.171875 15.886719 24.242188 15.90625 24.316406 15.90625 Z M 24.316406 15.90625 "/>
</g>
</svg>
