<?xml version="1.0" encoding="UTF-8"?>
<svg xmlns="http://www.w3.org/2000/svg" xmlns:xlink="http://www.w3.org/1999/xlink" width="20px" height="20px" viewBox="0 0 20 20" version="1.1">
<g id="surface1">
<path style=" stroke:none;fill-rule:nonzero;fill:rgb(0%,0%,0%);fill-opacity:1;" d="M 14.835938 10.113281 C 14.59375 9.871094 14.195312 9.871094 13.953125 10.117188 C 13.710938 10.363281 13.710938 10.753906 13.957031 11 C 15.027344 12.058594 15.625 13.496094 15.625 15 C 15.625 15.761719 13.429688 16.875 10 16.875 C 6.570312 16.875 4.375 15.761719 4.375 15 C 4.371094 13.503906 4.964844 12.074219 6.019531 11.019531 C 6.261719 10.773438 6.261719 10.378906 6.019531 10.136719 C 5.773438 9.894531 5.378906 9.894531 5.136719 10.136719 C 3.84375 11.421875 3.117188 13.175781 3.125 15 C 3.125 17.03125 6.667969 18.125 10 18.125 C 13.332031 18.125 16.875 17.03125 16.875 15 C 16.878906 13.164062 16.144531 11.402344 14.835938 10.113281 Z M 14.835938 10.113281 "/>
<path style=" stroke:none;fill-rule:nonzero;fill:rgb(0%,0%,0%);fill-opacity:1;" d="M 10 10.625 C 12.414062 10.625 14.375 8.664062 14.375 6.25 C 14.375 3.835938 12.414062 1.875 10 1.875 C 7.585938 1.875 5.625 3.835938 5.625 6.25 C 5.625 8.664062 7.585938 10.625 10 10.625 Z M 10 3.125 C 11.726562 3.125 13.125 4.523438 13.125 6.25 C 13.125 7.976562 11.726562 9.375 10 9.375 C 8.273438 9.375 6.875 7.976562 6.875 6.25 C 6.875 4.523438 8.273438 3.125 10 3.125 Z M 10 3.125 "/>
</g>
</svg>
